<svg width="339pt" height="69pt"
 viewBox="0.00 0.00 339.32 68.80" xmlns="http://www.w3.org/2000/svg" xmlns:xlink="http://www.w3.org/1999/xlink">
<g id="graph0" class="graph" transform="scale(1 1) rotate(0) translate(4 64.8)">
<title>%0</title>
<polygon fill="#ffffff" stroke="transparent" points="-4,4 -4,-64.8 335.3155,-64.8 335.3155,4 -4,4"/>
<text text-anchor="middle" x="165.6577" y="-44.2" font-family="Times,serif" font-size="14.00" fill="#000000">Sink[String,akka.NotUsed]</text>
<!-- ignoreSink -->
<g id="node1" class="node">
<title>ignoreSink</title>
<ellipse fill="none" stroke="#000000" cx="277.8994" cy="-18" rx="53.3322" ry="18"/>
<text text-anchor="middle" x="277.8994" y="-13.8" font-family="Times,serif" font-size="14.00" fill="#000000">ignoreSink</text>
</g>
<!-- *INLET* -->
<g id="node2" class="node">
<title>*INLET*</title>
<ellipse fill="none" stroke="#000000" cx="48.5779" cy="-18" rx="48.6559" ry="18"/>
<text text-anchor="middle" x="48.5779" y="-13.8" font-family="Times,serif" font-size="14.00" fill="#000000">*INLET*</text>
</g>
<!-- map -->
<g id="node3" class="node">
<title>map</title>
<ellipse fill="none" stroke="#000000" cx="160.8196" cy="-18" rx="27.8286" ry="18"/>
<text text-anchor="middle" x="160.8196" y="-13.8" font-family="Times,serif" font-size="14.00" fill="#000000">map</text>
</g>
<!-- *INLET*&#45;&gt;map -->
<g id="edge2" class="edge">
<title>*INLET*&#45;&gt;map</title>
<path fill="none" stroke="#000000" d="M97.1559,-18C105.7375,-18 114.5588,-18 122.7973,-18"/>
<polygon fill="#000000" stroke="#000000" points="122.8592,-21.5001 132.8592,-18 122.8591,-14.5001 122.8592,-21.5001"/>
</g>
<!-- map&#45;&gt;ignoreSink -->
<g id="edge1" class="edge">
<title>map&#45;&gt;ignoreSink</title>
<path fill="none" stroke="#000000" d="M188.5659,-18C196.3286,-18 205.1012,-18 214.0407,-18"/>
<polygon fill="#000000" stroke="#000000" points="214.1595,-21.5001 224.1595,-18 214.1595,-14.5001 214.1595,-21.5001"/>
</g>
</g>
</svg>
