<svg width="390pt" height="69pt"
 viewBox="0.00 0.00 390.17 68.80" xmlns="http://www.w3.org/2000/svg" xmlns:xlink="http://www.w3.org/1999/xlink">
<g id="graph0" class="graph" transform="scale(1 1) rotate(0) translate(4 64.8)">
<title>%0</title>
<polygon fill="#ffffff" stroke="transparent" points="-4,4 -4,-64.8 386.1688,-64.8 386.1688,4 -4,4"/>
<text text-anchor="middle" x="191.0844" y="-44.2" font-family="Times,serif" font-size="14.00" fill="#000000">RunnableGraph[akka.NotUsed]</text>
<!-- seqSink -->
<g id="node1" class="node">
<title>seqSink</title>
<ellipse fill="none" stroke="#000000" cx="340.5526" cy="-18" rx="41.7327" ry="18"/>
<text text-anchor="middle" x="340.5526" y="-13.8" font-family="Times,serif" font-size="14.00" fill="#000000">seqSink</text>
</g>
<!-- singleSource -->
<g id="node2" class="node">
<title>singleSource</title>
<ellipse fill="none" stroke="#000000" cx="60.9166" cy="-18" rx="60.8332" ry="18"/>
<text text-anchor="middle" x="60.9166" y="-13.8" font-family="Times,serif" font-size="14.00" fill="#000000">singleSource</text>
</g>
<!-- map -->
<g id="node3" class="node">
<title>map</title>
<ellipse fill="none" stroke="#000000" cx="219.7214" cy="-18" rx="27.8286" ry="18"/>
<text text-anchor="middle" x="219.7214" y="-13.8" font-family="Times,serif" font-size="14.00" fill="#000000">map</text>
</g>
<!-- singleSource&#45;&gt;map -->
<g id="edge2" class="edge">
<title>singleSource&#45;&gt;map</title>
<path fill="none" stroke="#000000" d="M121.8605,-18C142.0411,-18 163.9057,-18 181.8387,-18"/>
<polygon fill="#000000" stroke="#000000" points="181.9007,-21.5001 191.9007,-18 181.9006,-14.5001 181.9007,-21.5001"/>
<text text-anchor="middle" x="156.9453" y="-22.2" font-family="Times,serif" font-size="14.00" fill="#000000">String</text>
</g>
<!-- map&#45;&gt;seqSink -->
<g id="edge1" class="edge">
<title>map&#45;&gt;seqSink</title>
<path fill="none" stroke="#000000" d="M247.4425,-18C259.665,-18 274.4422,-18 288.5888,-18"/>
<polygon fill="#000000" stroke="#000000" points="288.7327,-21.5001 298.7327,-18 288.7326,-14.5001 288.7327,-21.5001"/>
<text text-anchor="middle" x="273.1608" y="-22.2" font-family="Times,serif" font-size="14.00" fill="#000000">Int</text>
</g>
</g>
</svg>
